<svg width="25" height="25" viewBox="0 0 25 25" fill="none" xmlns="http://www.w3.org/2000/svg">
<path d="M17.7083 17.7083C16.5577 17.7083 15.625 18.6411 15.625 19.7917C15.625 20.9423 16.5577 21.875 17.7083 21.875C18.8589 21.875 19.7917 20.9423 19.7917 19.7917C19.7917 18.6411 18.8589 17.7083 17.7083 17.7083ZM17.7083 17.7083H9.68119C9.20092 17.7083 8.96034 17.7083 8.76261 17.6229C8.58818 17.5475 8.43686 17.4262 8.3266 17.2714C8.20302 17.0979 8.15332 16.866 8.05494 16.4068L5.49113 4.44234C5.39046 3.97254 5.33945 3.73789 5.21444 3.56242C5.10418 3.40766 4.95288 3.28585 4.77845 3.21047C4.58068 3.125 4.34145 3.125 3.86097 3.125H3.125M6.25 6.25H19.6596C20.4115 6.25 20.787 6.25 21.0393 6.40662C21.2604 6.54382 21.4222 6.75898 21.4928 7.00938C21.5733 7.29524 21.4698 7.65621 21.2614 8.3786L19.8191 13.3786C19.6945 13.8105 19.6322 14.0261 19.5058 14.1863C19.3942 14.3278 19.2471 14.4385 19.0803 14.5065C18.8918 14.5833 18.6678 14.5833 18.2209 14.5833H8.05257M8.33333 21.875C7.18274 21.875 6.25 20.9423 6.25 19.7917C6.25 18.6411 7.18274 17.7083 8.33333 17.7083C9.48393 17.7083 10.4167 18.6411 10.4167 19.7917C10.4167 20.9423 9.48393 21.875 8.33333 21.875Z" stroke="black" stroke-width="2" stroke-linecap="round" stroke-linejoin="round"/>
</svg>
